<?xml version="1.0" encoding="utf-8"?>
<svg version="1.1" xmlns="http://www.w3.org/2000/svg" xmlns:xlink="http://www.w3.org/1999/xlink" x="0px" y="0px"
	 viewBox="0 0 256 256" style="enable-background:new 0 0 256 256;" xml:space="preserve">
<style type="text/css">
	.st0{fill:#A03F84;}
	.st1{opacity:0.3;fill:#FFFFFF;}
	.st2{fill:#FFFFFF;}
</style>
<g>
	<rect class="st0" width="256" height="256"/>
	<rect x="45.9" y="45.9" class="st1" width="164.1" height="40.6"/>
	<rect x="45.9" y="169.4" class="st1" width="164.1" height="40.6"/>
	<rect x="45.9" y="107.7" class="st1" width="164.1" height="40.6"/>
	<g>
		<path class="st2" d="M126.8,102.9c-16.3,0-31,10-37,25.2c8,20.4,31.1,30.5,51.5,22.4c10.3-4,18.4-12.2,22.4-22.4
			C157.8,112.9,143.1,102.9,126.8,102.9z M126.8,145c-9.6,0-17.2-8-16.8-17.6c0.4-8.6,7.4-15.6,16-16c9.6-0.4,17.6,7.2,17.6,16.8
			l0,0C143.6,137.4,136,145,126.8,145z M127,118c-5.8,0-10.5,4.9-10.1,10.8c0.3,5,4.4,9,9.3,9.3c5.9,0.4,10.8-4.3,10.8-10.1l0,0
			C137.1,122.5,132.6,118,127,118L127,118z"/>
		<path class="st2" d="M83.9,85.3c-23.6,23.6-23.6,62,0,85.6c19.9,19.9,50.2,23.1,73.4,9.5l43.1,43.1c6,6,15.7,6,21.7,0l0,0
			c6-6,6-15.7,0-21.7L179,158.7c13.6-23.2,10.4-53.5-9.5-73.4C145.9,61.7,107.6,61.7,83.9,85.3z M160.6,162
			c-18.7,18.7-49,18.7-67.7,0c-18.7-18.7-18.7-49,0-67.7s49-18.7,67.7,0S179.3,143.3,160.6,162z"/>
	</g>
</g>
</svg>
